<?xml version="1.0" standalone="no"?>
<!DOCTYPE svg PUBLIC "-//W3C//DTD SVG 20010904//EN"
 "http://www.w3.org/TR/2001/REC-SVG-20010904/DTD/svg10.dtd">
<svg version="1.0" xmlns="http://www.w3.org/2000/svg"
 width="512.000000pt" height="512.000000pt" viewBox="0 0 512.000000 512.000000"
 preserveAspectRatio="xMidYMid meet">

<g transform="translate(0.000000,512.000000) scale(0.100000,-0.100000)"
fill="#000000" stroke="none">
<path d="M1464 4891 c-55 -25 -83 -65 -135 -188 l-43 -103 -116 0 c-91 0 -124
-4 -156 -19 -54 -24 -95 -79 -101 -134 -5 -40 38 -374 58 -448 18 -72 91 -128
167 -129 l32 0 0 -390 c0 -317 3 -397 14 -425 16 -37 48 -52 92 -41 51 13 54
39 54 466 l0 390 155 0 155 0 0 -295 c0 -377 9 -422 102 -512 61 -60 127 -87
213 -87 94 0 159 29 224 100 63 68 80 121 88 263 6 111 7 116 37 149 56 61
159 53 203 -15 16 -24 19 -65 23 -378 5 -341 6 -351 29 -402 28 -63 103 -136
169 -165 136 -60 310 5 388 144 l29 53 3 573 3 572 359 0 360 0 0 -377 c0
-402 2 -416 49 -439 27 -14 72 -2 93 23 10 13 14 103 16 405 l3 388 32 0 c51
1 113 34 142 78 21 33 30 70 55 238 35 235 36 263 11 312 -41 81 -91 102 -244
102 l-113 0 -43 103 c-52 123 -80 163 -135 188 -39 18 -78 19 -693 19 -358 0
-659 -3 -668 -6 -17 -7 -45 -54 -45 -77 0 -8 9 -25 19 -38 l19 -24 658 -5 658
-5 32 -75 33 -75 -575 -3 c-316 -1 -832 -1 -1148 0 l-575 3 33 75 32 75 305 5
c167 3 305 7 307 8 15 11 29 70 21 91 -19 50 -23 50 -344 50 -272 1 -304 -1
-341 -18z m2671 -451 c8 -13 -46 -392 -58 -407 -7 -10 -315 -13 -1477 -13
-1162 0 -1470 3 -1478 13 -12 15 -65 384 -58 403 5 12 242 14 1535 14 980 0
1532 -3 1536 -10z m-1137 -1124 c-3 -545 -3 -555 -24 -583 -72 -97 -198 -97
-262 0 l-27 40 -5 356 c-5 340 -6 358 -26 396 -97 179 -329 213 -466 68 -51
-54 -71 -117 -78 -248 -4 -92 -10 -126 -24 -147 -64 -97 -213 -90 -267 12 -17
32 -19 62 -19 347 l0 313 600 0 600 0 -2 -554z"/>
<path d="M759 3331 c-49 -40 -18 -131 46 -131 38 0 75 37 75 75 0 62 -72 96
-121 56z"/>
<path d="M3912 2863 c-7 -3 -19 -18 -27 -33 -13 -24 -15 -100 -15 -465 0 -239
-2 -435 -5 -435 -3 0 -38 9 -78 21 -104 30 -297 37 -406 15 -212 -43 -395
-153 -524 -314 -138 -170 -199 -348 -199 -572 1 -197 58 -367 178 -527 l54
-73 -588 0 c-444 0 -591 3 -600 12 -9 9 -12 190 -12 752 l0 741 -24 51 c-30
64 -81 106 -158 130 -79 23 -130 62 -157 116 -19 41 -21 60 -21 256 0 162 -3
221 -14 247 -16 37 -48 52 -92 41 -45 -12 -54 -54 -54 -258 0 -216 9 -283 49
-361 l30 -57 -25 -48 c-13 -26 -35 -79 -48 -117 -19 -58 -27 -71 -47 -73 -52
-7 -173 -44 -218 -67 l-48 -24 -67 50 c-78 59 -87 72 -127 174 l-29 77 25 29
c93 111 14 282 -131 282 -61 0 -339 -109 -386 -151 -62 -56 -73 -144 -28 -217
23 -37 87 -75 127 -75 28 0 32 -5 62 -83 35 -91 40 -139 21 -217 -19 -79 -8
-171 34 -277 20 -51 36 -94 36 -96 0 -2 -19 -10 -42 -17 -77 -22 -137 -59
-201 -123 -213 -212 -206 -541 16 -744 108 -98 226 -139 377 -131 97 6 173 31
253 85 48 33 54 34 82 23 224 -94 413 -108 613 -44 74 24 84 25 100 11 56 -48
33 -47 784 -47 l703 0 45 -26 c115 -66 267 -104 416 -104 168 0 310 38 448
118 l59 35 66 -17 c116 -30 261 -20 366 24 40 17 41 17 75 -7 104 -71 275 -70
390 2 88 55 155 166 166 272 19 176 -98 347 -265 388 -44 11 -47 14 -83 87
-67 139 -203 257 -344 298 -36 11 -45 19 -65 63 -57 122 -173 264 -281 344
l-48 35 0 473 c0 480 -2 514 -38 541 -17 13 -56 17 -80 7z m-3367 -603 c0 -9
-49 -33 -135 -66 -149 -58 -160 -61 -160 -39 0 17 20 27 165 84 105 41 130 45
130 21z m977 -291 c17 -31 18 -87 18 -726 l0 -692 -21 -12 c-59 -31 -141 -51
-235 -56 -137 -8 -240 17 -364 86 -30 17 -65 31 -77 31 -12 0 -42 -18 -68 -40
-67 -58 -122 -87 -192 -101 -159 -33 -325 56 -395 210 -38 81 -40 188 -8 275
38 100 149 197 250 220 23 5 27 0 46 -52 l21 -58 -44 -48 c-55 -62 -113 -164
-113 -202 0 -40 24 -71 60 -79 44 -10 74 14 111 87 94 187 318 286 524 233 82
-22 143 -57 215 -126 47 -44 70 -59 92 -59 35 0 78 39 78 72 0 55 -86 142
-213 213 l-72 41 -96 249 c-53 138 -93 254 -89 258 16 18 143 57 224 68 58 8
91 18 102 30 9 10 25 55 35 99 11 44 28 98 39 120 l20 39 67 -23 c57 -19 71
-28 85 -57z m2158 -590 c61 -27 134 -101 161 -163 33 -75 31 -182 -3 -256 -32
-71 -87 -126 -157 -159 -78 -36 -193 -37 -266 -2 -63 32 -124 93 -156 156 -35
73 -34 188 2 266 75 159 258 228 419 158z m814 -180 c66 -44 125 -126 156
-217 29 -86 38 -93 135 -111 175 -32 240 -240 111 -359 -88 -81 -194 -81 -291
-1 -26 22 -55 39 -65 39 -10 0 -53 -17 -96 -37 -65 -31 -90 -37 -162 -41 l-84
-5 49 64 c92 117 150 241 179 378 15 74 21 291 9 311 -11 18 11 10 59 -21z"/>
<path d="M4340 2548 c-26 -28 -26 -72 0 -98 33 -33 75 -30 108 6 27 31 28 54
1 88 -27 34 -79 36 -109 4z"/>
<path d="M4610 2290 c-33 -33 -30 -75 6 -107 31 -28 54 -29 88 -2 19 15 26 30
26 54 0 65 -76 99 -120 55z"/>
</g>
</svg>
